#N canvas 99 22 1024 611 10;
#X obj -144 212 bng 15 250 50 0 empty empty empty 17 7 0 10 -262144
-1 -1;
#X msg 101 595 1;
#X obj 133 546 del;
#X obj 54 594 noise~;
#X obj 54 628 *~;
#X floatatom 169 507 5 0 6.755 0 - - -;
#X obj 169 595 *~ 0.99;
#X floatatom 208 567 5 0 0.99 0 - - -;
#X obj 214 256 vsl 15 128 1.5 25 0 1 empty empty empty 0 -9 0 10 -262144
-1 -1 5745 1;
#X obj 435 282 vsl 15 128 0 2000 0 0 empty empty empty 0 -9 0 10 -262144
-1 -1 317 1;
#X floatatom 362 430 5 0 0 0 - - -;
#X floatatom 435 426 5 0 0 0 - - -;
#X obj 516 282 vsl 15 128 50 1000 0 0 empty empty empty 0 -9 0 10 -262144
-1 -1 67 1;
#X floatatom 338 550 5 0 0 0 - - -;
#X obj 288 311 vsl 15 128 0.9 0.999 0 0 empty empty empty 0 -9 0 10
-262144 -1 -1 10600 1;
#X msg 169 462 14;
#X msg 133 593 0;
#N canvas 557 265 450 300 fundemental 0;
#X obj 1 47 bng 15 250 50 0 empty empty empty 17 7 0 10 -262144 -1
-1;
#X obj 1 219 line~;
#X obj 107 132 osc~ 146.8;
#X obj 92 168 *~;
#X obj 1 10 inlet;
#X obj 166 185 *~ 0.05;
#X msg 83 202 0 10000;
#X floatatom 121 27 5 0 0 0 - - -;
#X obj 106 97 /;
#X msg 106 63 1000;
#X obj 2 135 del 100;
#X msg 2 84 0.4 100;
#X obj 166 245 outlet~;
#X connect 0 0 11 0;
#X connect 0 0 10 0;
#X connect 0 0 9 0;
#X connect 1 0 3 0;
#X connect 2 0 3 1;
#X connect 3 0 5 0;
#X connect 4 0 0 0;
#X connect 4 0 7 0;
#X connect 5 0 12 0;
#X connect 6 0 1 0;
#X connect 7 0 8 1;
#X connect 8 0 2 0;
#X connect 9 0 8 0;
#X connect 10 0 6 0;
#X connect 11 0 1 0;
#X restore -68 243 pd fundemental;
#N canvas 74 22 450 300 subharmonic 0;
#X obj 113 25 bng 15 250 50 0 empty empty empty 17 7 0 10 -262144 -1
-1;
#X obj 141 262 line~;
#X obj 209 122 *~;
#X obj 82 3 inlet;
#X obj 261 149 *~ 0.05;
#X obj 56 213 del 100;
#X obj 193 70 osc~ 73.4;
#X floatatom 150 15 5 0 0 0 - - -;
#X msg 225 5 500;
#X obj 191 48 /;
#X msg 211 242 0 5000;
#X msg 114 75 0.1 200;
#X obj 285 185 outlet~;
#X connect 0 0 11 0;
#X connect 0 0 5 0;
#X connect 0 0 8 0;
#X connect 1 0 2 0;
#X connect 2 0 4 0;
#X connect 3 0 0 0;
#X connect 3 0 7 0;
#X connect 4 0 12 0;
#X connect 5 0 10 0;
#X connect 6 0 2 1;
#X connect 7 0 9 1;
#X connect 8 0 9 0;
#X connect 9 0 6 0;
#X connect 10 0 1 0;
#X connect 11 0 1 0;
#X restore 168 433 pd subharmonic;
#X obj 106 522 del 5;
#X obj 258 613 lop~ 559;
#X msg 232 258 6.755;
#X obj 304 247 loadbang;
#X msg 303 274 0.997;
#X obj 536 221 loadbang;
#X obj 450 224 loadbang;
#X msg 454 250 244;
#X obj -40 721 hip~ 20;
#X obj 362 283 vsl 15 128 100 500 0 0 empty empty empty 0 -9 0 10 -262144
-1 -1 0 1;
#X obj 373 219 loadbang;
#X msg 379 246 144;
#N canvas 960 82 214 277 pluckSound 0;
#X obj -136 116 noise~;
#X obj -136 145 *~;
#X obj -48 129 vline~;
#X obj -136 175 lop~ 200;
#X msg -48 89 1 5 5 \, 0 1 6;
#X obj -137 75 bng 15 250 50 0 empty empty empty 17 7 0 10 -262144
-1 -1;
#X obj -137 37 inlet;
#X obj -136 205 outlet~;
#X connect 0 0 1 0;
#X connect 1 0 3 0;
#X connect 2 0 1 1;
#X connect 3 0 7 0;
#X connect 4 0 2 0;
#X connect 5 0 4 0;
#X connect 6 0 5 0;
#X restore -177 334 pd pluckSound;
#X text 271 150 resonance;
#X text 424 150 filter bandwidth;
#X text 500 137 low pass filter frequency;
#X text 72 444 karplus-strong;
#N canvas 190 313 450 300 first 0;
#X obj 10 57 bng 15 250 50 0 empty empty empty 17 7 0 10 -262144 -1
-1;
#X obj 47 277 line~;
#X obj 115 137 *~;
#X obj -12 18 inlet;
#X obj 167 164 *~ 0.05;
#X obj 86 99 osc~ 293.7;
#X obj -40 226 del 2000;
#X floatatom 48 24 5 0 0 0 - - -;
#X msg 130 7 1000;
#X obj 142 50 /;
#X msg 117 258 0 6000;
#X obj 238 116 * 2;
#X floatatom 234 86 5 0 0 0 - - -;
#X floatatom 257 155 5 0 0 0 - - -;
#X msg 19 90 0.2 200;
#X obj 243 252 outlet~;
#X connect 0 0 14 0;
#X connect 0 0 6 0;
#X connect 0 0 8 0;
#X connect 1 0 2 0;
#X connect 2 0 4 0;
#X connect 3 0 0 0;
#X connect 3 0 7 0;
#X connect 4 0 15 0;
#X connect 5 0 2 1;
#X connect 6 0 10 0;
#X connect 7 0 9 1;
#X connect 8 0 9 0;
#X connect 9 0 12 0;
#X connect 10 0 1 0;
#X connect 11 0 13 0;
#X connect 12 0 11 0;
#X connect 13 0 5 0;
#X connect 14 0 1 0;
#X restore -278 393 pd first;
#X obj -292 630 vline~;
#X msg 541 247 250;
#X obj 55 644 *~ 0.9;
#X obj -40 749 *~;
#X text 198 163 1.5 - 20;
#X text 258 164 0.9 - 0.999;
#X floatatom 362 591 0 0 0 0 - - -;
#X obj 348 645 bp~ 100 10;
#X floatatom 435 621 0 0 0 0 - - -;
#X obj 329 705 +~;
#X msg 331 613 clear;
#X msg -293 590 0 \, 1 20 0 \, 0.7 1000 100 \, 0 4000 10000;
#X obj -142 125 inlet;
#X obj 55 683 delwrite~ \$0-buffer 1000;
#X obj 169 545 vd~ \$0-buffer 100;
#X obj -40 791 outlet~;
#X obj 211 225 float \$1;
#X obj -141 152 t b b;
#X obj 288 217 f \$2;
#X obj 363 199 f \$3;
#X obj 435 197 f \$4;
#X obj 516 186 f \$5;
#X text 209 146 pitch;
#X text 341 162 100 - 500 hz;
#X text 442 165 0 - 500 hz;
#X text 519 167 0 - 1000 hz;
#X text -262 574 ADSR envelope;
#X text 13 721 High-pass filter;
#X text 225 592 low-pass filter;
#X obj 303 26 r sTension;
#X obj 311 102 -;
#X obj 561 28 r sBrightness;
#X obj 559 103 +;
#X text 323 136 notch filter frequency;
#X obj -159 646 r stops;
#X msg -210 623 0;
#X obj 134 141 *;
#X obj 127 12 r sLength;
#X obj 562 69 * 800 + 50;
#X floatatom 355 119 5 0 0 0 - - -;
#X msg 264 80 1;
#X obj 320 67 / 10;
#X obj -181 527 *~;
#X msg -181 486 0;
#X msg -145 522 1;
#X obj -177 509 bng 15 250 50 0 empty empty empty 17 7 0 10 -262144
-1 -1;
#X obj -147 487 bng 15 250 50 0 empty empty empty 17 7 0 10 -262144
-1 -1;
#X obj -83 470 *~;
#X msg -83 429 0;
#X msg -69 408 1;
#X obj -120 407 bng 15 250 50 0 empty empty empty 17 7 0 10 -262144
-1 -1;
#X obj -37 414 bng 15 250 50 0 empty empty empty 17 7 0 10 -262144
-1 -1;
#X obj -49 547 *~;
#X msg -49 506 0;
#X msg -13 542 1;
#X obj -45 529 bng 15 250 50 0 empty empty empty 17 7 0 10 -262144
-1 -1;
#X obj -15 507 bng 15 250 50 0 empty empty empty 17 7 0 10 -262144
-1 -1;
#X obj -41 450 moses 0.97;
#X obj -7 525 moses 0.97;
#X obj -137 505 moses 0.97;
#X obj 61 71 moses 0.1;
#X floatatom 131 53 5 0 0 0 - - -;
#X obj 58 108 bng 15 250 50 0 empty empty empty 17 7 0 10 -262144 -1
-1;
#X msg 59 131 1;
#X obj -26 143 print wtf;
#X obj 158 81 print hmm;
#X obj 32 35 print okk;
#X connect 0 0 19 0;
#X connect 0 0 36 0;
#X connect 0 0 17 0;
#X connect 0 0 18 0;
#X connect 0 0 31 0;
#X connect 0 0 48 0;
#X connect 0 0 77 0;
#X connect 0 0 98 0;
#X connect 1 0 4 1;
#X connect 2 0 16 0;
#X connect 3 0 4 0;
#X connect 4 0 39 0;
#X connect 5 0 2 1;
#X connect 5 0 51 0;
#X connect 6 0 20 0;
#X connect 6 0 50 0;
#X connect 7 0 6 1;
#X connect 8 0 17 0;
#X connect 8 0 18 0;
#X connect 8 0 36 0;
#X connect 8 0 5 0;
#X connect 9 0 11 0;
#X connect 10 0 43 0;
#X connect 11 0 45 0;
#X connect 12 0 13 0;
#X connect 13 0 20 1;
#X connect 14 0 7 0;
#X connect 14 0 94 0;
#X connect 14 0 95 0;
#X connect 14 0 96 0;
#X connect 15 0 5 0;
#X connect 16 0 4 1;
#X connect 17 0 84 0;
#X connect 18 0 89 0;
#X connect 19 0 1 0;
#X connect 19 0 5 0;
#X connect 19 0 2 0;
#X connect 20 0 44 0;
#X connect 20 0 46 0;
#X connect 21 0 8 0;
#X connect 22 0 23 0;
#X connect 23 0 14 0;
#X connect 24 0 38 0;
#X connect 25 0 26 0;
#X connect 26 0 9 0;
#X connect 27 0 40 0;
#X connect 28 0 10 0;
#X connect 29 0 30 0;
#X connect 30 0 28 0;
#X connect 31 0 27 0;
#X connect 36 0 79 0;
#X connect 37 0 40 1;
#X connect 38 0 12 0;
#X connect 39 0 50 0;
#X connect 40 0 52 0;
#X connect 43 0 44 1;
#X connect 44 0 46 1;
#X connect 45 0 44 2;
#X connect 46 0 27 0;
#X connect 47 0 44 0;
#X connect 48 0 37 0;
#X connect 49 0 54 0;
#X connect 51 0 6 0;
#X connect 53 0 73 1;
#X connect 54 0 0 0;
#X connect 54 1 55 0;
#X connect 54 1 56 0;
#X connect 54 1 57 0;
#X connect 54 1 58 0;
#X connect 54 1 53 0;
#X connect 56 0 28 0;
#X connect 57 0 9 0;
#X connect 58 0 69 0;
#X connect 66 0 78 0;
#X connect 67 0 76 0;
#X connect 67 0 14 0;
#X connect 68 0 75 0;
#X connect 69 0 12 0;
#X connect 71 0 72 0;
#X connect 72 0 37 0;
#X connect 73 0 8 0;
#X connect 74 0 98 0;
#X connect 74 0 103 0;
#X connect 75 0 69 1;
#X connect 77 0 67 0;
#X connect 78 0 67 1;
#X connect 79 0 27 0;
#X connect 80 0 79 1;
#X connect 81 0 79 1;
#X connect 82 0 80 0;
#X connect 83 0 81 0;
#X connect 84 0 27 0;
#X connect 85 0 84 1;
#X connect 86 0 84 1;
#X connect 87 0 85 0;
#X connect 88 0 86 0;
#X connect 89 0 27 0;
#X connect 90 0 89 1;
#X connect 91 0 89 1;
#X connect 92 0 90 0;
#X connect 93 0 91 0;
#X connect 94 0 87 0;
#X connect 94 1 88 0;
#X connect 95 0 92 0;
#X connect 95 1 93 0;
#X connect 96 0 82 0;
#X connect 96 1 83 0;
#X connect 97 0 99 0;
#X connect 97 1 73 0;
#X connect 97 1 102 0;
#X connect 98 0 97 0;
#X connect 99 0 100 0;
#X connect 99 0 101 0;
#X connect 100 0 73 0;
