#N canvas 159 148 882 524 10;
#X obj 324 373 *~ 0.5;
#X obj 319 409 dac~;
#X obj 326 223 bng 15 250 50 0 empty empty empty 17 7 0 10 -262144
-1 -1;
#X obj 376 202 bng 15 250 50 0 empty empty empty 17 7 0 10 -262144
-1 -1;
#X text 268 223 G String;
#X text 321 199 D String;
#X obj 409 173 bng 15 250 50 0 empty empty empty 17 7 0 10 -262144
-1 -1;
#X obj 442 143 bng 15 250 50 0 empty empty empty 17 7 0 10 -262144
-1 -1;
#X text 353 172 A String;
#X text 385 142 E String;
#X obj 295 255 bng 15 250 50 0 empty empty empty 17 7 0 10 -262144
-1 -1;
#X obj 264 281 bng 15 250 50 0 empty empty empty 17 7 0 10 -262144
-1 -1;
#X text 236 250 B String;
#X text 175 280 High E String;
#X obj 442 116 r Esynth;
#X obj 342 141 r Asynth;
#X obj 282 171 r Dsynth;
#X obj 231 196 r Gsynth;
#X obj 179 224 r Bsynth;
#X obj 181 313 r HiEsynth;
#X obj 148 154 moses 0.5;
#X obj 55 223 bng 15 250 50 0 empty empty empty 17 7 0 10 -262144 -1
-1;
#X obj 225 2 bng 15 250 50 0 empty empty empty 17 7 0 10 -262144 -1
-1;
#X obj 80 340 del 15;
#X text 173 0 left;
#X text 20 299 right;
#X obj 483 92 del 75;
#X obj 78 371 del 30;
#X obj 71 404 del 45;
#X obj 76 433 del 60;
#X obj 80 468 del 75;
#X obj 149 67 r swipe;
#X obj 103 104 print;
#X obj 7 263 print;
#X obj 327 450 catch~ signal2;
#X obj 442 169 CosmosGuitar 12.13 0.997 82 50 55;
#X obj 376 228 CosmosGuitar 6.755 0.997 144 244 250;
#X obj 409 199 CosmosGuitar 9.09 0.997 110 100 100;
#X obj 326 255 CosmosGuitar 5.1 0.997 196 190 450;
#X obj 295 281 CosmosGuitar 4.05 0.995 247 240 450;
#X obj 267 309 CosmosGuitar 3.03 0.995 329 300 456;
#X obj 484 1 del 25;
#X obj 482 26 del 50;
#X obj 482 49 del 75;
#X obj 481 71 del 100;
#X connect 0 0 1 0;
#X connect 0 0 1 1;
#X connect 2 0 38 0;
#X connect 3 0 36 0;
#X connect 6 0 37 0;
#X connect 7 0 35 0;
#X connect 10 0 39 0;
#X connect 11 0 40 0;
#X connect 14 0 7 0;
#X connect 15 0 6 0;
#X connect 16 0 3 0;
#X connect 17 0 2 0;
#X connect 18 0 10 0;
#X connect 19 0 11 0;
#X connect 20 0 21 0;
#X connect 20 1 22 0;
#X connect 21 0 11 0;
#X connect 21 0 23 0;
#X connect 21 0 27 0;
#X connect 21 0 28 0;
#X connect 21 0 29 0;
#X connect 21 0 30 0;
#X connect 21 0 33 0;
#X connect 22 0 7 0;
#X connect 22 0 26 0;
#X connect 22 0 41 0;
#X connect 22 0 42 0;
#X connect 22 0 43 0;
#X connect 22 0 44 0;
#X connect 23 0 10 0;
#X connect 26 0 11 0;
#X connect 27 0 2 0;
#X connect 28 0 3 0;
#X connect 29 0 6 0;
#X connect 30 0 7 0;
#X connect 31 0 20 0;
#X connect 31 0 32 0;
#X connect 34 0 1 0;
#X connect 34 0 1 1;
#X connect 35 0 0 0;
#X connect 36 0 0 0;
#X connect 37 0 0 0;
#X connect 38 0 0 0;
#X connect 39 0 0 0;
#X connect 40 0 0 0;
#X connect 41 0 6 0;
#X connect 42 0 3 0;
#X connect 43 0 2 0;
#X connect 44 0 10 0;
